# xmcd
#
# Track frame offsets: 
#        150
#        10760
#        23782
#        34451
#        51131
#        59196
#        78598
#        92194
#        104868
#        122885
#        138484
#
# Disc length: 2043 seconds
#
# Revision: 0
# Processed by: cddbd v1.5.2PL0 Copyright (c) Steve Scherf et al.
# Submitted via: ExactAudioCopyFreeDBPlugin 1.0
#
DISCID=a207f90b
DTITLE=Guy Verlinde And The House Rockers - How How How
DYEAR=2016
DGENRE=Blues
TTITLE0=How How How
TTITLE1=Long Distance Lovin'
TTITLE2=Let's Get It On
TTITLE3=Show Some Mercy
TTITLE4=Snap!
TTITLE5=I've Been Waitin'
TTITLE6=You Gotta Shake
TTITLE7=Jungle Fever
TTITLE8=That Baby Don't Love Ya
TTITLE9=Down The Line
TTITLE10=Say What?
EXTD=
EXTT0=
EXTT1=
EXTT2=
EXTT3=
EXTT4=
EXTT5=
EXTT6=
EXTT7=
EXTT8=
EXTT9=
EXTT10=
PLAYORDER=
